<?xml version="1.0" encoding="UTF-8"?>
<svg width="512" height="512" viewBox="0 0 64 64" xmlns="http://www.w3.org/2000/svg">
  <!-- Magician Hat -->
  <path d="M32 8c-8 0-16 2-16 2l4 12h24l4-12c0 0-8-2-16-2z" fill="#333333"/>
  <path d="M20 22h24v4H20z" fill="#333333"/>
  
  <!-- Magic Wand -->
  <path d="M46 18l6-6-2-2-6 6z" fill="#FFFFFF"/>
  <path d="M44 20l-4 4 2 2 4-4z" fill="#FFFFFF"/>
  
  <!-- Stars -->
  <path d="M48 14l1 1-1 1-1-1z" fill="#FFD700"/>
  <path d="M50 12l2 0.5-0.5 2-2-0.5z" fill="#FFD700"/>
  <path d="M46 10l0.5 2-2 0.5-0.5-2z" fill="#FFD700"/>
  
  <!-- Cute Face -->
  <circle cx="32" cy="34" r="10" fill="#FFE0B2"/>
  
  <!-- Eyes -->
  <circle cx="28" cy="32" r="2" fill="#333333"/>
  <circle cx="36" cy="32" r="2" fill="#333333"/>
  
  <!-- Smile -->
  <path d="M28 38c0 0 2 2 8 0" stroke="#333333" stroke-width="1.5" fill="none"/>
  
  <!-- Blush -->
  <circle cx="26" cy="35" r="1.5" fill="#FFAAAA" opacity="0.6"/>
  <circle cx="38" cy="35" r="1.5" fill="#FFAAAA" opacity="0.6"/>
  
  <!-- Cape -->
  <path d="M22 40c0 0 0 8 10 8 10 0 10-8 10-8z" fill="#9C27B0"/>
  
  <!-- Bow Tie -->
  <path d="M30 40l2 2 2-2-2-2z" fill="#FF5252"/>
</svg>
